<svg xmlns="http://www.w3.org/2000/svg" width="1080" height="1080" viewBox="0 0 1080 1080">
  <defs><style>{{FONTS}}</style></defs>
  <rect width="1080" height="1080" fill="#0A0A0A"/>

  <!-- Logo -->
  <g transform="translate(60, 44)">
    <line x1="0" y1="14" x2="28" y2="14" stroke="#FAFAFA" stroke-width="1.4"/>
    <path d="M2 14 C6 14,10 24,14 24 S22 14,26 14" fill="rgba(250,250,250,0.12)" stroke="#FAFAFA" stroke-width="1.2"/>
    <circle cx="14" cy="7" r="4" fill="#FAFAFA"/>
    <text x="36" y="10" font-family="DM Sans" font-size="11" font-weight="600" letter-spacing="2" fill="#FAFAFA">DIVOT</text>
    <text x="36" y="22" font-family="DM Sans" font-size="11" font-weight="300" letter-spacing="2" fill="rgba(250,250,250,0.4)">LAB</text>
  </g>

  <!-- Badge -->
  <rect x="848" y="30" width="172" height="28" rx="2" fill="none" stroke="rgba(255,255,255,0.1)" stroke-width="1"/>
  <text x="934" y="49" font-family="DM Sans" font-size="10" font-weight="600" letter-spacing="0.12em" fill="rgba(245,245,243,0.4)" text-anchor="middle">{{BADGE}}</text>

  <!-- Header rule -->
  <line x1="60" y1="82" x2="1020" y2="82" stroke="rgba(255,255,255,0.07)" stroke-width="1"/>

  <!-- Decorative quote mark -->
  <text x="56" y="310" font-family="Cormorant Garamond" font-size="220" font-weight="700" fill="rgba(245,245,243,0.04)">"</text>

  <!-- Green accent bar -->
  <rect x="60" y="296" width="2" height="300" fill="#5BBF85" opacity="0.6"/>

  <!-- Quote text -->
  <text x="84" y="360" font-family="Cormorant Garamond" font-size="52" font-weight="600" font-style="italic" fill="#F5F5F3">{{QUOTE_LINE_1}}</text>
  <text x="84" y="436" font-family="Cormorant Garamond" font-size="52" font-weight="600" font-style="italic" fill="#F5F5F3">{{QUOTE_LINE_2}}</text>
  <text x="84" y="512" font-family="Cormorant Garamond" font-size="52" font-weight="600" font-style="italic" fill="#F5F5F3">{{QUOTE_LINE_3}}</text>

  <!-- Source -->
  <text x="84" y="616" font-family="DM Sans" font-size="13" font-weight="500" letter-spacing="0.08em" fill="rgba(245,245,243,0.35)">{{SOURCE_LINE}}</text>

  <!-- Footer -->
  <line x1="60" y1="978" x2="1020" y2="978" stroke="rgba(255,255,255,0.06)" stroke-width="1"/>
  <text x="540" y="1016" font-family="DM Sans" font-size="11" font-weight="400" letter-spacing="0.1em" fill="rgba(245,245,243,0.18)" text-anchor="middle">DIVOT LAB · DIVOTLAB.COM</text>
</svg>
